<?xml version="1.0" encoding="utf-8"?>
<!-- Generator: Adobe Illustrator 18.1.1, SVG Export Plug-In . SVG Version: 6.00 Build 0)  -->
<svg version="1.1" id="Шар_1" xmlns="http://www.w3.org/2000/svg" xmlns:xlink="http://www.w3.org/1999/xlink" x="0px" y="0px"
	 viewBox="0 0 213.5 26.9" enable-background="new 0 0 213.5 26.9" xml:space="preserve">
<path fill="#4B5B66" d="M6.6,9.8h4.8c6.3,0,9.3,3.6,9.3,8.1c0,4.6-3.1,8.5-9.3,8.5H0V0.5h18.6v5.9h-12V9.8z M6.6,15.4v5.1h4.7
	c1.9,0,2.7-1.3,2.7-2.6c0-1.3-0.9-2.5-2.7-2.5H6.6z"/>
<polygon fill="#4B5B66" points="48.2,6.4 38.8,6.4 38.8,10.1 47.5,10.1 47.5,16 38.8,16 38.8,20.2 48.6,20.2 48.6,26.4 32,26.4 
	32,0.5 48.2,0.5 "/>
<polygon fill="#4B5B66" points="64.1,26.4 57.6,26.4 57.6,25.5 69.3,0.3 72.1,0.3 83.9,25.5 83.9,26.4 77.3,26.4 70.7,11.3 "/>
<polygon fill="#4B5B66" points="89.6,6.4 89.6,0.5 108.9,0.5 108.9,6.4 102.6,6.4 102.6,26.4 96,26.4 96,6.4 "/>
<polygon fill="#4B5B66" points="121.8,26.5 119.8,26.5 119.8,0.5 126.5,0.5 126.5,13.2 140,0.4 142.2,0.4 142.2,26.4 135.4,26.4 
	135.4,13.1 "/>
<path fill="#4B5B66" d="M165.1,16.4c-0.8,0.1-2.3,0.1-3.2,0.1v9.9h-6.8V0.5h6.8v10.1c1.1,0,2.9,0.1,3.8-0.4c1.2-0.6,1.6-2.1,2.3-5.3
	c0.8-3.1,3.3-5.7,9.4-4.4v4.6c-1.6-0.1-2.7,0.3-3.1,1.9c-0.9,3.1-1.7,5.3-3.2,6.9c2.5,3.8,4.9,7.7,7.4,11.6v1h-7.7L165.1,16.4z"/>
<path fill="#4B5B66" d="M200.2,26.9c-6.8,0-13.3-4.4-13.3-13.4c0-9,6.6-13.5,13.4-13.5c6.6,0,13.2,4.5,13.2,13.5
	C213.5,21.4,208.1,26.9,200.2,26.9 M200.3,20.5c3.2,0,6.5-2.4,6.5-7c0-4.6-3.2-7-6.4-7c-3.4,0-6.6,2.3-6.6,7
	C193.7,18.1,196.9,20.5,200.3,20.5"/>
</svg>
